<?xml version="1.0" standalone="no"?>
<!DOCTYPE svg PUBLIC "-//W3C//DTD SVG 20010904//EN"
 "http://www.w3.org/TR/2001/REC-SVG-20010904/DTD/svg10.dtd">
<svg version="1.0" xmlns="http://www.w3.org/2000/svg"
 width="505.000000pt" height="494.000000pt" viewBox="0 0 505.000000 494.000000"
 preserveAspectRatio="xMidYMid meet">
<metadata>
Created by potrace 1.16, written by Peter Selinger 2001-2019
</metadata>
<g transform="translate(0.000000,494.000000) scale(0.100000,-0.100000)"
fill="#000000" stroke="none">
<path d="M2455 4868 c-11 -6 -34 -23 -51 -38 -28 -24 -44 -28 -120 -34 -284
-23 -775 -185 -929 -308 -27 -22 -106 -67 -175 -100 -69 -32 -141 -67 -160
-76 -51 -25 -130 -101 -130 -126 0 -12 -39 -64 -95 -126 -308 -341 -480 -650
-579 -1046 -13 -55 -30 -135 -36 -179 -6 -44 -19 -120 -27 -169 -40 -226 41
-738 163 -1034 129 -313 288 -547 543 -803 176 -176 285 -256 522 -378 292
-152 567 -236 911 -280 52 -7 75 -16 105 -40 66 -53 122 -54 187 -1 21 16 52
32 70 35 239 38 305 50 389 71 340 84 755 287 954 467 344 311 575 644 708
1025 60 170 94 341 132 652 10 85 7 246 -6 290 -5 19 -15 80 -21 135 -31 267
-151 602 -304 849 -99 161 -175 259 -338 439 -38 41 -68 81 -68 90 0 40 -98
121 -191 157 -93 37 -210 101 -273 150 -60 47 -115 72 -367 170 -196 76 -471
140 -604 140 -30 0 -57 5 -61 11 -10 17 -96 69 -113 69 -9 0 -25 -6 -36 -12z
m108 -167 c6 -26 -2 -42 -46 -94 l-24 -29 -35 49 c-39 53 -65 98 -51 90 11 -7
49 21 40 29 -4 4 6 18 21 31 l27 23 32 -36 c17 -20 34 -48 36 -63z m-215 47
c-3 -8 -38 -17 -87 -23 -68 -8 -78 -12 -59 -20 42 -18 27 -38 -37 -51 -138
-27 -140 -27 -126 -10 8 9 23 16 35 16 12 0 27 9 34 20 7 12 23 20 39 20 14 0
24 3 20 6 -3 4 -27 3 -53 -1 -33 -5 -43 -9 -33 -16 10 -6 6 -10 -16 -15 -18
-3 -35 -15 -40 -27 -6 -12 -25 -25 -45 -30 -19 -5 -29 -12 -23 -14 7 -3 27 0
45 6 107 35 368 64 368 41 0 -5 -14 -10 -31 -10 -129 0 -418 -67 -577 -135
-113 -47 -122 -50 -122 -37 0 12 137 72 275 121 l30 11 -34 -6 c-19 -4 -43 -1
-57 7 -19 10 -27 10 -36 1 -9 -9 -7 -12 10 -12 42 0 22 -15 -55 -41 -61 -21
-80 -25 -95 -16 -10 7 -18 14 -18 17 0 3 38 21 85 39 47 19 83 36 82 38 -5 5
-210 -72 -264 -99 -24 -12 -39 -6 -29 11 12 18 318 133 435 162 110 28 277 56
349 58 23 1 32 -3 30 -11z m454 -3 c177 -26 369 -82 555 -161 89 -37 112 -54
77 -54 -9 0 -80 25 -158 56 -171 68 -364 119 -522 136 -75 8 -119 17 -122 26
-5 16 48 16 170 -3z m203 -80 c72 -19 148 -41 170 -51 22 -10 42 -18 45 -18
20 -3 100 -39 100 -46 0 -4 -7 -13 -14 -20 -12 -9 -33 -4 -104 24 -49 19 -101
38 -116 42 -18 4 -25 11 -22 20 3 8 1 14 -3 14 -5 0 -11 -5 -13 -11 -2 -7 -15
-9 -35 -5 -24 6 -30 11 -26 27 6 21 3 22 -21 13 -9 -3 -13 -11 -9 -17 4 -6 -3
-8 -18 -4 -13 3 -55 11 -93 18 -77 13 -99 26 -82 46 15 18 80 9 241 -32z
m-190 -21 c123 -21 237 -49 320 -78 92 -31 215 -87 215 -98 0 -13 -10 -10
-107 32 -153 66 -373 121 -540 135 -46 4 -83 12 -83 16 0 14 96 10 195 -7z
m-403 -101 c9 -10 19 -29 22 -43 l7 -25 -21 28 c-36 46 -82 33 -98 -28 -6 -20
-26 -34 -102 -68 -176 -79 -296 -171 -360 -276 -40 -65 -51 -59 -15 7 58 107
208 228 358 287 56 23 73 35 94 69 14 22 32 47 41 54 22 17 56 15 74 -5z m239
7 c10 -6 28 -29 40 -51 16 -33 32 -46 77 -66 162 -71 286 -161 352 -259 33
-47 35 -54 18 -54 -6 0 -9 2 -6 5 11 11 -131 146 -208 198 -45 30 -121 70
-168 88 -76 29 -86 35 -86 57 0 57 -70 85 -92 37 -6 -14 -15 -25 -20 -25 -11
0 -10 5 6 45 12 27 21 35 41 35 15 0 35 -5 46 -10z m916 -42 c13 -12 23 -27
23 -35 0 -17 -10 -17 -24 1 -13 16 -71 32 -61 17 3 -6 -6 -13 -21 -17 -58 -15
-91 -73 -39 -70 14 0 25 6 25 11 0 6 12 11 28 11 15 1 48 9 75 19 38 14 50 15
62 5 24 -20 17 -33 -38 -68 -29 -18 -60 -38 -69 -44 -13 -10 -21 -9 -36 5 -10
9 -29 17 -43 17 -34 0 -87 -35 -107 -71 -36 -65 -44 -68 -38 -15 4 30 14 59
26 71 12 13 20 35 20 57 0 60 14 83 62 101 85 31 126 33 155 5z m-2107 -7 c0
-5 -6 -11 -12 -13 -7 -3 -2 -7 11 -11 13 -3 20 -3 17 0 -3 4 -2 11 4 17 10 13
90 9 90 -5 0 -5 14 -9 30 -9 26 0 30 -4 30 -26 0 -16 -4 -23 -12 -18 -6 4 -41
6 -77 5 -51 -2 -71 -7 -88 -23 -24 -23 -37 -61 -28 -88 5 -15 10 -13 38 15 36
36 89 52 134 40 40 -10 113 -90 113 -125 0 -48 -20 -46 -21 2 -1 40 -2 41 -8
13 -10 -42 -26 -68 -42 -71 -8 -1 -21 -3 -29 -5 -10 -3 -15 3 -15 16 0 16 6
20 29 18 26 -2 27 -1 11 11 -13 9 -15 15 -7 20 36 22 -18 86 -71 86 -51 0 -91
-17 -104 -45 -10 -22 -8 -29 14 -55 30 -36 17 -38 -38 -7 -49 28 -57 54 -37
131 12 46 13 64 4 79 -9 15 -7 22 13 38 24 20 51 25 51 10z m1202 -100 c103
-27 185 -70 256 -136 121 -112 181 -245 187 -415 l4 -95 -10 90 c-11 101 -48
220 -86 279 -105 163 -281 261 -488 273 -341 19 -608 -217 -635 -562 l-8 -100
2 115 c4 133 27 209 98 318 130 200 420 299 680 233z m-18 -77 c185 -48 344
-206 385 -384 15 -66 13 -197 -4 -265 -23 -88 -62 -152 -140 -231 -169 -171
-417 -211 -641 -103 -131 62 -251 211 -283 349 -13 58 -13 202 0 260 38 166
189 316 372 370 80 24 227 26 311 4z m746 -12 c0 -5 7 -17 16 -28 8 -10 13
-14 10 -8 -4 8 10 13 42 16 41 3 51 0 75 -23 l27 -28 48 21 c35 16 68 22 127
22 70 0 88 -4 146 -32 71 -34 124 -85 161 -154 19 -35 23 -58 23 -128 -1 -77
-4 -91 -35 -148 -39 -74 -85 -115 -158 -142 -65 -24 -169 -27 -198 -5 -18 14
-17 14 11 4 72 -26 239 29 289 94 39 51 66 131 66 196 0 44 -7 72 -31 119 -53
107 -152 165 -279 166 -81 0 -126 -17 -189 -70 -69 -58 -112 -185 -90 -267 13
-49 -4 -77 -21 -33 -30 79 -1 221 60 297 35 44 35 46 13 71 -20 23 -62 23
-108 1 -37 -17 -47 -49 -20 -59 24 -10 17 -26 -7 -19 -20 6 -21 5 -8 -6 9 -8
23 -23 30 -33 15 -19 14 -19 -19 -2 -33 17 -33 19 -29 72 3 37 10 59 23 68 13
9 15 15 6 20 -6 4 -9 12 -6 17 7 11 25 12 25 1z m-2270 -30 c0 -4 -22 -18 -49
-31 -28 -13 -58 -33 -68 -44 l-18 -21 25 17 c14 10 50 30 80 45 48 23 67 27
145 27 76 0 98 -4 145 -26 133 -63 209 -206 181 -341 -12 -54 -48 -122 -89
-164 -14 -15 -17 -25 -10 -38 5 -9 8 -29 6 -44 -2 -22 -8 -27 -30 -28 -15 -1
-25 2 -23 6 3 5 -3 11 -12 14 -21 8 -5 26 25 29 11 0 18 5 16 9 -9 13 -38 9
-64 -9 -69 -49 -229 -46 -323 4 -93 51 -167 167 -167 262 0 54 25 129 62 186
17 28 33 57 34 65 3 16 34 43 84 70 38 21 50 24 50 12z m2705 -89 c13 -7 6
-15 -34 -42 -28 -17 -69 -47 -91 -66 -44 -37 -53 -36 -79 13 -10 19 -9 22 6
22 15 0 16 2 3 10 -18 11 -56 -21 -76 -65 -7 -16 -13 -23 -13 -15 -1 47 86
140 144 154 29 6 121 -1 140 -11z m437 -273 c162 -191 312 -450 392 -677 41
-115 100 -332 92 -340 -2 -3 -17 35 -31 83 -108 364 -199 560 -368 794 -37 51
-165 208 -194 238 -7 8 -18 23 -24 35 -19 36 42 -25 133 -133z m-3421 113 c-5
-10 -34 -45 -63 -78 -227 -259 -407 -592 -483 -895 -19 -78 -46 -152 -52 -146
-9 8 28 150 74 286 96 288 270 580 472 793 57 60 68 69 52 40z m2238 -213 c1
-168 -48 -290 -163 -405 -82 -81 -163 -127 -272 -155 -183 -47 -387 -2 -533
118 -138 113 -225 322 -205 492 l8 65 7 -115 c4 -78 13 -134 28 -174 84 -237
296 -386 546 -386 336 0 597 275 572 604 -4 45 -9 92 -12 106 -2 14 2 7 9 -15
8 -23 15 -81 15 -135z m606 40 c8 -16 14 -42 14 -57 l-2 -28 -4 28 c-2 15 -8
27 -11 27 -33 0 -152 -155 -152 -197 l0 -24 -30 18 c-29 17 -30 21 -24 58 3
22 17 51 30 64 13 13 24 27 24 32 0 4 11 21 25 37 15 19 21 33 15 37 -17 11
-11 23 9 18 10 -3 22 0 25 6 4 6 20 11 36 11 23 0 33 -7 45 -30z m-2929 -87
c-53 -70 -188 -287 -229 -369 -20 -40 -55 -125 -77 -190 -38 -111 -60 -156
-60 -125 0 22 50 161 96 267 67 155 264 464 297 464 5 0 -7 -21 -27 -47z m869
-343 c9 -17 20 -30 25 -30 5 0 32 14 58 30 27 17 53 30 58 30 5 0 17 -12 26
-27 16 -27 16 -27 -38 -71 -30 -24 -54 -48 -54 -52 0 -4 9 -19 21 -34 l20 -26
52 33 c29 18 57 36 63 40 7 4 23 -10 38 -33 l26 -40 -42 -31 c-24 -17 -50 -35
-58 -40 -11 -8 -12 -11 -2 -15 24 -11 11 -30 -26 -40 -28 -7 -39 -7 -39 1 0 6
-29 56 -65 110 -93 144 -131 214 -124 231 8 21 42 2 61 -36z m2253 -157 c-29
-32 -65 -101 -130 -253 -83 -193 -83 -193 -83 -332 0 -117 2 -129 23 -158 13
-17 22 -33 20 -35 -5 -5 -224 -35 -256 -35 l-27 0 24 13 c50 25 66 71 66 187
-1 98 -3 111 -39 200 -62 153 -131 294 -154 314 -12 10 -28 16 -38 12 -14 -5
-15 -17 -9 -86 4 -44 5 -80 2 -80 -2 0 -16 18 -31 40 -14 22 -39 46 -56 55
l-30 16 0 -317 0 -316 30 -29 c18 -18 25 -31 17 -34 -15 -4 -239 -35 -258 -35
-8 0 -4 7 10 16 48 34 52 62 51 379 -1 162 2 300 5 305 3 6 -3 10 -14 10 -27
0 -95 -62 -111 -100 -21 -50 -30 -34 -24 40 5 50 3 74 -6 85 -22 27 -61 19
399 80 329 44 310 43 276 3 -20 -23 -25 -38 -20 -57 7 -28 50 -138 85 -215
l23 -50 39 100 c54 140 63 178 49 213 -7 16 -24 34 -39 41 -15 7 -22 14 -16
16 14 6 192 32 223 33 l25 1 -26 -27z m-2354 -65 c64 -19 141 -101 162 -174
21 -73 15 -186 -15 -264 -43 -113 -149 -194 -285 -219 -33 -6 -61 -13 -63 -15
-2 -2 -5 -132 -6 -288 -2 -259 0 -286 16 -311 10 -16 28 -32 40 -36 21 -8 20
-9 -8 -16 -50 -11 -117 -36 -185 -70 -36 -18 -76 -36 -89 -40 l-24 -7 20 28
c24 36 49 95 64 154 8 32 11 200 10 569 -1 466 -3 527 -17 543 -9 9 -14 23
-11 31 3 8 1 20 -5 28 -8 11 -9 11 -5 -2 3 -10 -14 2 -38 25 -25 22 -41 42
-37 44 5 1 64 8 133 16 161 18 291 19 343 4z m1230 -87 c60 -34 87 -104 72
-186 -9 -47 -65 -109 -120 -131 l-43 -18 37 -35 c21 -21 44 -57 54 -86 58
-165 70 -191 111 -231 l41 -40 -135 -17 c-174 -22 -167 -23 -142 9 12 15 21
41 21 58 0 40 -32 150 -58 203 -23 44 -81 99 -91 86 -4 -4 -4 -84 -1 -176 5
-159 6 -170 27 -187 l23 -18 -23 -5 c-12 -3 -76 -11 -142 -17 -66 -6 -164 -15
-218 -21 -54 -5 -111 -9 -128 -9 -29 0 -30 1 -15 22 9 12 16 40 16 61 0 39
-28 166 -39 179 -4 4 -33 4 -66 -1 -33 -5 -94 -12 -135 -15 -41 -3 -76 -6 -77
-6 -2 0 -3 -11 -3 -25 0 -30 9 -31 38 -5 27 26 31 25 26 -2 -3 -18 -1 -17 8 5
11 26 28 37 28 18 0 -5 -13 -52 -30 -106 -43 -140 -43 -141 40 -119 69 18 123
10 188 -27 67 -38 103 -97 109 -182 7 -81 -8 -133 -53 -185 -37 -43 -99 -82
-131 -82 -13 0 -7 -9 20 -31 45 -37 69 -83 113 -213 40 -117 92 -217 142 -270
88 -93 236 -115 271 -40 8 18 7 27 -4 37 -8 8 -11 17 -8 21 4 3 1 6 -6 6 -8 0
-11 -12 -9 -32 2 -27 0 -33 -17 -33 -26 0 -33 46 -10 69 42 42 112 -8 101 -73
-17 -104 -171 -141 -331 -81 -117 45 -194 147 -277 370 -49 130 -81 186 -117
204 l-28 15 4 -187 c3 -103 9 -201 14 -219 6 -18 24 -44 40 -58 l31 -25 -27 0
c-30 0 -115 28 -198 64 -57 26 -57 26 -38 45 29 29 33 77 29 434 -2 257 0 327
10 327 6 0 12 4 12 8 0 10 -50 58 -56 54 -6 -4 -44 22 -44 30 0 5 6 8 14 8 8
0 24 12 34 28 24 33 95 240 87 252 -3 5 1 22 8 37 8 15 27 73 41 128 15 55 34
120 43 144 13 33 14 47 5 61 -9 14 -8 20 1 23 20 6 -8 54 -45 77 -18 11 -26
20 -18 20 8 0 87 9 175 20 202 25 193 25 168 -2 -11 -13 -24 -32 -27 -44 -8
-26 157 -588 183 -624 10 -14 29 -30 42 -37 21 -11 27 -10 44 8 19 18 20 37
25 307 4 218 2 292 -7 309 -9 16 -9 23 -1 25 16 6 -20 57 -56 79 -39 24 -36
25 180 54 187 24 250 24 298 -4z m-1938 -16 c48 -20 109 -71 139 -116 37 -56
31 -58 -16 -5 -55 62 -169 120 -169 86 0 -5 8 -6 18 -3 14 6 15 4 5 -8 -11
-13 -5 -25 32 -68 53 -62 58 -77 13 -35 -67 61 -137 114 -151 114 -13 0 -103
-89 -160 -160 -26 -31 -27 -32 -12 -5 10 17 29 46 44 65 14 19 26 39 26 43 0
4 7 12 15 17 11 7 11 10 2 10 -7 0 -10 5 -7 10 11 17 -19 11 -58 -13 -21 -13
-53 -45 -72 -72 -24 -33 -35 -43 -35 -29 0 42 68 122 132 155 79 40 178 46
254 14z m3599 -7 c60 -32 109 -80 129 -130 23 -54 19 -59 -9 -13 l-24 40 6
-37 c4 -27 0 -45 -13 -65 -10 -16 -27 -44 -36 -63 -19 -36 -18 -26 4 47 11 40
10 44 -11 67 -13 14 -28 23 -33 20 -5 -3 -30 -7 -56 -9 -63 -4 -62 -4 -61 -12
4 -25 -4 -34 -11 -13 l-8 25 -1 -26 c-1 -21 5 -28 24 -33 25 -6 104 9 138 26
10 5 17 5 17 0 0 -9 -20 -15 -126 -42 -43 -10 -49 -21 -69 -117 -4 -18 -10
-33 -15 -33 -4 0 -1 30 7 67 l15 67 -38 30 c-21 17 -55 46 -74 65 -30 29 -26
27 32 -13 60 -41 66 -44 63 -24 -3 13 -9 24 -15 26 -6 2 -7 9 -3 15 4 7 -1 6
-11 -2 -14 -12 -17 -12 -14 -1 2 8 -7 19 -19 25 -30 13 -29 18 10 37 50 24 93
31 119 18 22 -11 22 -11 3 5 -25 20 -67 13 -153 -26 l-65 -29 7 -82 c6 -68 13
-92 37 -130 53 -82 80 -91 33 -11 -14 24 -24 51 -22 61 2 9 16 -14 32 -51 15
-37 34 -67 42 -67 8 0 14 -4 14 -10 0 -13 -17 -13 -26 1 -5 8 -9 8 -14 -1 -12
-20 -101 104 -107 150 -3 22 -9 37 -14 34 -4 -2 -24 2 -43 10 -19 8 -37 12
-40 8 -3 -3 -6 1 -6 9 0 12 -2 11 -11 -1 -15 -22 -2 50 16 87 22 44 77 92 131
113 72 29 200 23 269 -12z m-3317 -108 c19 -39 22 -59 22 -165 0 -124 -19
-246 -43 -274 -7 -9 -24 -33 -36 -55 -20 -35 -21 -40 -6 -62 8 -13 15 -27 15
-31 0 -4 -8 4 -18 20 l-19 27 -19 -21 c-17 -20 -208 -149 -219 -149 -18 0 1
34 32 57 106 81 151 141 141 185 -2 8 13 28 33 46 20 17 51 60 70 94 31 59 34
71 37 174 4 99 2 115 -18 155 -12 24 -32 55 -44 69 l-21 24 35 -25 c19 -14 45
-45 58 -69z m-750 -12 c-23 -50 -24 -60 -18 -163 5 -86 12 -120 30 -155 27
-53 136 -170 159 -170 12 0 13 -2 3 -9 -10 -6 -8 -16 10 -47 28 -49 47 -63
121 -92 33 -12 72 -32 86 -44 l26 -21 -45 6 c-60 6 -149 41 -207 80 -84 56
-213 281 -213 372 0 24 -4 47 -10 50 -5 3 -9 29 -8 56 0 28 3 46 7 41 4 -6 10
-5 18 3 7 7 8 17 2 26 -5 8 -9 21 -9 30 0 17 60 102 67 95 3 -3 -6 -29 -19
-58z m422 -333 c49 -25 61 -65 19 -65 -26 0 -53 -48 -41 -74 6 -11 13 -29 16
-38 12 -39 63 -13 85 42 7 18 10 20 10 7 1 -24 -22 -68 -48 -91 -15 -13 -19
-26 -15 -40 6 -17 5 -19 -8 -9 -10 9 -17 10 -25 2 -8 -8 -27 -3 -68 21 -73 42
-95 66 -94 104 l1 31 8 -29 c12 -38 39 -66 65 -66 31 0 45 19 45 60 0 41 -24
70 -59 73 -35 2 -19 47 27 71 35 19 46 19 82 1z m3553 -19 c18 -7 47 -30 65
-50 48 -55 41 -93 -8 -41 -33 35 -78 45 -152 35 -34 -5 -64 -7 -67 -5 -19 11
-71 -59 -71 -94 0 -18 -3 -22 -11 -14 -8 8 -7 23 6 56 38 101 146 152 238 113z
m-697 -243 c61 -21 150 -107 184 -178 32 -68 40 -207 15 -291 -53 -183 -171
-295 -341 -325 -45 -8 -97 -27 -151 -55 -103 -56 -117 -57 -92 -7 23 46 25 78
4 69 -8 -3 -22 -9 -31 -13 -10 -4 -3 14 20 47 l36 52 0 267 c0 219 -3 271 -15
295 -13 24 -13 31 -3 38 11 6 11 8 0 8 -17 0 -61 51 -62 71 0 33 351 51 436
22z m-466 -23 c0 -5 -5 -10 -11 -10 -5 0 -17 -16 -25 -35 -11 -27 -14 -95 -14
-334 0 -178 4 -310 10 -326 6 -15 20 -35 33 -46 l22 -18 -24 -1 c-23 0 -160
-14 -434 -43 -107 -12 -116 -12 -98 2 37 29 42 62 20 155 l-21 85 -81 -6 c-45
-3 -85 -9 -90 -12 -14 -13 -47 -145 -47 -188 0 -30 5 -46 20 -56 18 -12 9 -15
-88 -25 -59 -7 -118 -12 -132 -12 l-25 1 23 12 c34 19 51 49 88 154 22 64 30
102 24 112 -5 11 -3 23 6 36 26 35 95 286 100 361 3 44 -1 56 -22 79 -14 15
-24 28 -22 29 4 3 290 36 310 36 15 0 14 -5 -8 -37 -31 -46 -34 -27 62 -358
82 -282 108 -338 151 -333 14 2 35 16 47 31 20 27 21 42 24 319 2 200 0 294
-8 303 -8 10 -8 14 1 17 18 6 -15 52 -49 68 -33 16 -29 17 94 34 125 17 164
19 164 6z m1470 -367 c-52 -210 -177 -501 -285 -663 -80 -119 -280 -358 -291
-347 -3 2 26 37 62 78 241 267 410 580 500 927 15 56 29 100 31 98 3 -2 -5
-44 -17 -93z m-4141 -352 c90 -203 219 -397 388 -585 35 -38 63 -74 63 -80 -1
-27 -200 213 -302 364 -102 151 -244 467 -263 585 -3 22 14 -16 38 -85 24 -69
58 -158 76 -199z m3660 243 c29 -6 32 -9 25 -33 -12 -43 -13 -111 -1 -111 6 0
3 -6 -8 -14 -17 -12 -17 -13 8 -20 15 -3 27 -10 27 -14 0 -9 -132 12 -170 27
l-25 10 28 0 c15 1 27 5 27 10 0 5 -12 12 -27 14 -22 3 -20 4 10 6 32 1 37 4
29 17 -11 19 5 95 22 106 14 9 16 9 55 2z m-366 -511 c84 -26 181 -119 200
-191 12 -49 -23 -34 -100 45 -90 91 -132 109 -234 100 -115 -10 -219 -87 -248
-182 -5 -16 -10 -24 -10 -17 -1 10 -4 10 -14 0 -8 -7 -12 -22 -10 -33 2 -11 1
-14 -3 -7 -3 6 -10 10 -14 7 -5 -3 -5 8 0 23 4 16 6 40 3 53 -6 33 45 110 99
149 104 76 206 92 331 53z m-2315 -12 c83 -42 149 -119 176 -203 7 -23 -3 -23
-21 0 -12 15 -13 14 -8 -13 l6 -30 -14 30 c-8 17 -12 36 -9 43 3 8 -1 10 -11
6 -9 -3 -30 11 -57 40 -52 55 -107 83 -181 92 -110 13 -228 -45 -274 -135 -18
-35 -23 -40 -21 -21 1 14 6 32 10 40 4 8 -6 0 -23 -19 -39 -45 -52 -32 -23 23
34 63 100 123 168 152 51 21 71 24 149 21 69 -2 100 -9 133 -26z m-54 -90 c8
-7 13 -18 10 -25 -3 -8 2 -16 10 -19 10 -4 13 -1 9 9 -3 7 0 14 6 14 14 0 14
-16 1 -41 -10 -18 -12 -18 -43 -2 -44 24 -135 23 -172 -1 -27 -18 -29 -18 -42
0 -15 21 -17 38 -3 29 5 -3 7 0 4 8 -5 13 34 33 95 49 24 7 109 -8 125 -21z
m-14 -77 c54 -33 80 -125 45 -161 -18 -17 -15 -23 11 -27 10 -2 20 -8 22 -14
2 -8 -13 -12 -47 -12 -39 0 -51 4 -51 15 0 22 -15 18 -28 -7 l-11 -23 0 23
c-1 23 -28 31 -47 12 -6 -6 -29 -11 -51 -13 -23 -1 -39 -6 -36 -11 5 -7 -36 1
-46 10 -2 1 6 14 16 28 18 23 21 23 36 9 15 -15 16 -15 11 4 -4 12 -13 20 -22
18 -36 -5 -43 53 -13 99 10 15 32 37 47 47 37 24 125 26 164 3z m2330 -13 c14
-10 33 -20 42 -24 9 -3 21 -14 27 -25 8 -16 5 -20 -27 -32 -20 -7 -40 -18 -44
-24 -5 -8 -8 -7 -8 2 0 9 -7 11 -22 7 -20 -5 -21 -4 -5 5 9 6 22 8 29 4 7 -4
8 -3 4 5 -9 13 32 31 53 23 9 -3 12 0 9 9 -6 19 -39 18 -58 -2 -25 -26 -53
-37 -87 -33 -22 2 -33 -1 -33 -9 0 -8 -4 -7 -10 3 -8 13 -10 12 -10 -2 0 -10
-4 -18 -10 -18 -5 0 -19 -8 -30 -17 -27 -23 -32 -23 -36 5 -2 12 0 22 6 22 5
0 6 7 3 17 -5 12 -3 14 7 8 9 -6 11 -4 6 4 -9 13 22 54 34 46 4 -3 11 2 14 10
8 22 66 45 96 38 14 -3 36 -13 50 -22z m-1125 -113 c117 -30 214 -111 267
-224 27 -58 29 -69 20 -106 -6 -23 -9 -45 -6 -50 3 -4 1 -8 -4 -8 -5 0 -12 22
-15 48 -8 68 -47 150 -94 198 -40 41 -152 104 -182 103 -9 0 8 -9 36 -20 70
-27 155 -106 189 -175 32 -65 41 -156 25 -235 -40 -191 -263 -306 -474 -245
-44 13 -71 30 -121 76 -75 71 -107 134 -114 232 -10 141 55 261 178 328 59 32
61 39 5 16 -50 -21 -133 -103 -162 -160 -14 -27 -31 -79 -39 -115 l-14 -66 5
70 c5 70 5 70 -9 30 -19 -55 -19 -30 -1 33 9 29 20 50 25 47 6 -3 7 1 4 9 -7
19 45 96 93 136 106 87 243 115 388 78z"/>
<path d="M3010 3762 c0 -12 -9 -31 -21 -43 -11 -11 -18 -24 -14 -27 3 -4 10 0
15 8 6 8 10 11 10 5 0 -5 -4 -16 -9 -23 -6 -10 -10 -10 -21 3 -10 12 -15 13
-28 3 -12 -10 -16 -10 -19 0 -3 6 -11 12 -18 12 -8 0 -21 10 -29 22 -16 22
-16 22 -16 -14 0 -37 -14 -59 -23 -36 -4 10 -8 9 -16 -2 -8 -11 -9 -5 -6 25 5
37 4 38 -5 10 -5 -16 -12 -57 -16 -90 -4 -33 -13 -72 -21 -87 -12 -24 -20 -28
-57 -28 -36 0 -54 8 -102 43 -33 24 -65 51 -73 60 -19 23 -34 21 -61 -8 -49
-52 -83 -24 -135 109 -12 30 -19 37 -32 31 -44 -16 -110 -17 -141 -1 -18 9
-32 12 -32 6 0 -5 11 -12 25 -16 14 -3 25 -12 25 -20 0 -8 6 -14 13 -15 6 0 1
-5 -12 -10 -13 -5 -26 -7 -29 -4 -3 3 0 5 6 5 7 0 12 5 12 11 0 5 -4 8 -9 4
-5 -3 -12 -1 -16 4 -3 6 -13 7 -22 4 -11 -4 -14 -3 -9 5 4 7 3 12 -3 12 -5 0
-13 -5 -16 -11 -4 -6 -13 -8 -21 -5 -7 3 -20 -4 -28 -15 -8 -13 -16 -16 -20
-10 -5 7 -13 7 -26 -1 -13 -8 -16 -16 -10 -24 6 -6 7 -13 4 -17 -13 -13 64
-135 118 -187 200 -194 530 -200 738 -13 31 28 49 51 46 60 -3 8 -2 12 3 8 11
-6 38 31 68 95 23 49 50 167 39 177 -3 3 -6 -3 -6 -15z"/>
<path d="M1130 4233 c-193 -67 -267 -267 -161 -435 60 -95 196 -152 307 -129
157 31 264 152 264 298 0 109 -92 232 -199 266 -66 21 -151 21 -211 0z m122
-47 c56 -14 111 -45 135 -76 7 -9 8 -16 2 -18 -6 -2 -4 -11 3 -20 10 -12 10
-14 1 -8 -9 4 -13 1 -13 -10 0 -12 -6 -15 -25 -12 -13 3 -22 1 -19 -3 3 -5 15
-10 27 -10 17 -1 18 -2 4 -6 -10 -3 -14 -10 -11 -16 4 -7 -6 0 -22 14 -36 33
-65 43 -75 28 -8 -13 -39 -5 -39 10 0 5 14 14 30 20 43 15 37 20 -11 10 -59
-14 -97 -35 -105 -61 l-6 -21 -14 24 -13 24 -11 -32 c-16 -43 -27 -42 -36 4
-6 33 -8 35 -20 18 -18 -24 -18 -13 0 28 16 39 81 100 121 115 38 13 31 14 97
-2z"/>
<path d="M1320 3154 c-4 -113 3 -521 9 -527 15 -15 94 27 132 70 112 125 102
348 -19 428 -38 25 -122 45 -122 29z"/>
<path d="M2494 3009 c3 -34 6 -91 6 -127 l0 -65 40 6 c57 7 89 31 112 84 17
40 19 51 9 85 -16 51 -59 78 -125 78 l-49 0 7 -61z"/>
<path d="M1881 2764 c-18 -64 -35 -123 -38 -132 -5 -12 4 -14 60 -8 64 7 67 7
76 -16 20 -50 9 10 -25 135 -19 72 -36 133 -38 134 -1 2 -17 -49 -35 -113z"/>
<path d="M1705 2230 c-3 -6 3 -24 15 -40 23 -33 33 -39 24 -15 -4 10 0 15 12
16 14 1 13 3 -6 9 l-25 8 26 1 c35 1 39 -21 39 -210 0 -166 -1 -165 68 -130
64 33 106 93 118 169 12 78 -43 172 -114 192 -48 13 -149 13 -157 0z"/>
<path d="M3398 2320 l22 -10 0 -326 c-1 -179 1 -328 3 -331 13 -12 109 48 158
98 78 79 103 144 103 264 0 72 -4 100 -22 140 -43 95 -135 162 -235 171 -40 3
-47 2 -29 -6z"/>
<path d="M2520 2081 c0 -13 -11 -60 -24 -105 -13 -44 -27 -94 -31 -110 l-6
-28 59 7 c41 5 62 3 67 -5 4 -6 4 -14 1 -17 -3 -3 -65 -14 -138 -24 -73 -9
-127 -17 -120 -18 7 -1 12 -7 11 -13 -4 -34 0 -41 18 -27 15 13 16 10 11 -26
-6 -36 -5 -38 5 -14 7 14 17 24 23 22 6 -2 16 8 22 22 9 19 9 25 -1 25 -8 0
-8 3 2 9 8 5 54 12 103 16 85 7 89 8 84 29 -4 11 -20 75 -37 141 -30 118 -49
163 -49 116z"/>
<path d="M2390 1011 c-54 -17 -108 -51 -151 -98 -63 -67 -68 -79 -73 -171 -2
-44 -7 -85 -10 -91 -4 -6 -3 -11 3 -11 5 0 12 6 14 13 3 6 6 3 6 -8 2 -37 58
-140 97 -177 62 -59 125 -82 219 -82 127 1 216 52 277 160 20 36 34 51 44 47
17 -6 19 18 2 36 -10 11 -10 13 0 7 9 -5 12 9 12 61 0 146 -99 270 -247 308
-60 16 -151 18 -193 6z m179 -108 c25 -14 58 -37 74 -51 26 -25 36 -52 18 -52
-5 0 -7 -13 -5 -29 4 -21 -1 -36 -15 -50 l-21 -21 33 -9 32 -9 -33 -1 c-25 -1
-35 -7 -42 -26 -5 -14 -9 -31 -7 -38 1 -6 -17 -20 -40 -31 -24 -11 -45 -28
-49 -38 -3 -10 -10 -18 -15 -18 -6 0 -7 4 -4 10 3 6 -1 7 -9 4 -9 -3 -16 -1
-16 4 0 6 -15 16 -34 23 -30 11 -35 18 -41 56 -3 24 -10 43 -14 43 -4 0 -16 7
-27 16 -19 15 -19 15 2 11 17 -4 20 -1 17 14 -3 10 -14 21 -24 24 -10 4 -18
12 -16 18 1 7 -6 11 -15 9 -37 -6 -8 58 49 108 21 19 37 37 36 41 -1 4 7 5 17
2 11 -3 20 -1 20 5 0 20 83 10 129 -15z"/>
</g>
</svg>
